# xmcd CD database file
#
# Track frame offsets:
#	183
#	22915
#	48493
#	63970
#	90650
#	127443
#	147845
#
# Disc length: 2724 seconds
#
# Revision: 2
# Processed by: cddbd v1.4b41PL1 Copyright (c) Steve Scherf et al.
# Submitted via: Feurio! 1.50.2ß - http://www.feurio.com
#
DISCID=5f0aa107,5f0aa207
DTITLE=Blues Mobile Band - A New Day Yesterday
DYEAR=1900
DGENRE=
TTITLE0=Hochie Cochie Man
TTITLE1=I Wakw Up This Morning
TTITLE2=Can't Find My Way Home
TTITLE3=It's My Own Fault
TTITLE4=A New Day Yesterday
TTITLE5=A Fool No More
TTITLE6=Medley
EXTD=Medley - a. Yer Blues, b. Revolution 9, c. Everybody Got Something To Hide Exept Me And My Monkey, d. A Day In The Life, e. The End
EXTT0=
EXTT1=
EXTT2=
EXTT3=
EXTT4=
EXTT5=
EXTT6=
PLAYORDER=
